<?xml version="1.0" encoding="iso-8859-1"?>
<!-- Uploaded to: SVG Repo, www.svgrepo.com, Generator: SVG Repo Mixer Tools -->
<svg fill="#000000" height="800px" width="800px" version="1.1" id="Layer_1" xmlns="http://www.w3.org/2000/svg" xmlns:xlink="http://www.w3.org/1999/xlink" 
	 viewBox="0 0 480 480" xml:space="preserve">
<g>
	<g>
		<g>
			<path d="M399.67,60.827h-35.62V10c0-5.523-4.478-10-10-10c-5.522,0-10,4.477-10,10v50.827H135.951V10c0-5.523-4.478-10-10-10
				c-5.522,0-10,4.477-10,10v50.827H80.33c-5.522,0-10,4.477-10,10V470c0,5.523,4.478,10,10,10h319.34c5.523,0,10-4.477,10-10
				V70.827C409.67,65.304,405.192,60.827,399.67,60.827z M90.33,460V80.827h299.34V460H90.33z"/>
			<path d="M354.05,383.967H141.157c-5.522,0-10,4.477-10,10s4.478,10,10,10H354.05c5.522,0,10-4.477,10-10
				S359.572,383.967,354.05,383.967z"/>
			<path d="M308.43,414.38H186.777c-5.522,0-10,4.477-10,10s4.478,10,10,10H308.43c5.522,0,10-4.477,10-10
				S313.952,414.38,308.43,414.38z"/>
			<path d="M323.636,358.347h30.413c5.522,0,10-4.477,10-10V116.446c0-5.523-4.478-10-10-10H125.951c-5.522,0-10,4.477-10,10
				v231.901c0,5.523,4.478,10,10,10h30.412H323.636z M227.127,338.348h-60.764v-19.543c0-14.776,8.854-31.789,23.685-45.509
				c8.739-8.086,18.628-14.227,28.459-17.917c0.796,0.204,1.626,0.324,2.485,0.324h6.135V338.348z M313.637,338.347h-66.51v-82.645
				h11.881c0.161,0,0.318-0.017,0.478-0.024c10.022,3.776,20.218,9.902,29.131,17.773c15.666,13.832,25.02,30.787,25.02,45.353
				V338.347z M344.05,126.445v211.902h-10.413v-19.543c0-34.153-30.871-66.784-63.918-80.538
				c19.764-10.752,33.207-31.705,33.207-55.739c0-24.294-13.735-45.432-33.842-56.082H344.05z M282.926,182.528
				c0,23.936-19.48,43.409-43.423,43.409c-23.932-0.001-43.401-19.474-43.401-43.409c0-23.946,19.47-43.427,43.401-43.427
				C263.446,139.101,282.926,158.582,282.926,182.528z M146.362,338.348H135.95V126.446h0.001h73.98
				c-20.1,10.65-33.83,31.787-33.83,56.082c0,23.733,13.113,44.451,32.466,55.319c-11.295,4.677-22.367,11.762-32.102,20.768
				c-19.131,17.699-30.103,39.637-30.103,60.19V338.348z"/>
		</g>
	</g>
</g>
</svg>